<?xml version="1.0" encoding="utf-8"?>
<!-- Generator: Adobe Illustrator 25.0.0, SVG Export Plug-In . SVG Version: 6.00 Build 0)  -->
<svg version="1.1" id="Calque_1" xmlns="http://www.w3.org/2000/svg" xmlns:xlink="http://www.w3.org/1999/xlink" x="0px" y="0px"
	 viewBox="0 0 800 800" style="enable-background:new 0 0 800 800;" xml:space="preserve">
<style type="text/css">
	.st0{display:none;}
	.st1{fill:#FFFFFF;}
</style>
<rect x="26.4" y="127" class="st0" width="616.9" height="449.3"/>
<g id="Calque_1_1_">
</g>
<g id="svg5">
	<g>
		<path id="path4773_2_" class="st1" d="M281.3,237.8c45.6,8.4,89,23.4,132.4,37.6c43.4,14.2,71.2,11.9,77.3,11.3
			s42.3-5.1,56.3-10.4c36.8-13.4,76.9-56.4,96.2-64.5c0,0-66.4,18.7-88.9,23.1c-36.2,7.3-64.5,8.5-112.4,3.8
			c-72.2-10.5-72.6-27.2-158-39.7c-86.4-4.3-140.2,12.9-201.4,40.7c0,0-12.2,15.7-21.6,43.5C74.8,296.1,207.5,228.2,281.3,237.8z"/>
		<path id="path4099_3_" class="st1" d="M64.5,273.6c4.5-5.1,44.3-21.9,69.1-29.3c24.7-7.4,57.7-14.6,103-15.2
			c45.4-0.6,96.1,11.3,125.4,24.8c41,16.6,38.8,28.8,89,37s107.2-27.6,167.1-29.3c10.8-1.7,44-7.7,44-7.7s-59.1,21.4-78.6,27
			c-49.1,12.9-88.9,38.7-138.6,35.7c-48.8-13.2-59.9-16.6-103.5-34.9c-33.3-12.9-63.5-21.1-88.5-23c-42.9-1-74.5,3.4-117.3,18.5
			S50,325.3,50,325.3s5.6-26.7,8.4-34.6C62.8,278.5,61.5,280.7,64.5,273.6z"/>
		<path id="path3521_2_" class="st1" d="M197.9,321.2c60.7-4,110.8-3,150.7,2.7s60.7,8.4,106.4,11.4s106.7-1.4,128.8-10.9
			c13.6-5.8,40.4-15.7,59.5-29.8c-41.7,5.2-94.6,22.3-143.2,22c-40.7-0.2-56.1-5.1-94.6-17.8c-38.4-12.7-73.6-30.7-108.5-37.7
			c-35-7-105.6-10.5-167,13.8c-27.4,9.9-77.9,42-77.9,42s-4.2,6.8-3.1,23.5c0.7,11.9,4.9,29.9,4.9,29.9
			C58.4,374.1,150,327.6,197.9,321.2z"/>
		<path id="path2317_2_" class="st1" d="M56.4,382.6c0.6,6.1,0.5,6.1,1.1,8.7c0.6,2.5,1.9,3.6,8.5,8.5c-36.3,0.6,48.7-0.9,105-13.5
			c67.6-14.2,106.2-17.3,150.1-17.3s109.3,17.7,122,18.5c12.7,0.9,67.6,5.2,124.2-1.9c47.3-14.1,100.8-9.8,147.9-16.1
			c-145.6-25.5-115.6,1.7-227.8-17.3c-46.2-12.4-88.1-27.8-127.6-41.8c-61.8-22-112.4-24.2-162.7-19.4
			c-50.3,4.8-102.2,28.4-142.8,78.4C54.2,372.3,55.8,376.5,56.4,382.6L56.4,382.6z"/>
		<path id="path5064_2_" class="st1" d="M104,235.7c36.8-10,73.2-15.6,99.5-18.2c26.3-2.6,59.2-5.2,106.1,2.5s67.9,33.3,114,57.2
			s52.2,32.8,112.3,52.7c60.1,19.9,104.3,26.6,148.6,24.1c44.1-2.5,78.6-22.4,104.6-20.3c-32-5.7-54.9,7.5-100.5,10.9
			c-45.7,3.2-78.3-10.8-93.6-17.1s-43.5-12-93.7-38.4s-49.7-31.8-81.6-56.3s-63.2-36.3-101.5-47.3c-38.4-10.9-75.5-9.5-127-2.6
			c-51.6,6.9-101.6,36-109.3,58.4L104,235.7z"/>
		<path id="path7315_2_" class="st1" d="M51.9,426c0,0,43.9-3.1,61.2-6.6s51.4-16.6,87-23.5s76.4-16.1,111.1-13
			c34.6,3.1,59.5,16.1,69.5,22.1c33.6,15,86.8,14.6,138.5,8.9l25.1-4.5l-11.3-1.5c-55,0.9-93,1.4-137.1-19.4
			c-13.7-5.1-39.4-25.5-88.8-31.6s-73.7-7.8-124-0.2c-50.4,7.5-75.9,20.6-126.1,33.6l0.5,11.5c0.2,5.9-0.7,8.4-2,14.3
			C55,418.3,51.9,426,51.9,426L51.9,426z"/>
		<path id="path7941_2_" class="st1" d="M51.8,504.6c0,0,22-13.8,39.9-20.2c17.9-6.2,38.9-17.9,92.6-18.7
			c53.7-0.7,74.5,19.4,115.3,18.7s69.2-9.4,85.4-18c19-7.5,28.1-6.1,28.1-6.1c-12.4,4.9-22.1,7.7-39.2,19.9
			c-18,7.9-42.2,24.6-71.7,25.5s-52.4-2-76.8-1.7s-53.9,2.8-81.5,10.4c-27.7,7.7-48.6,29.2-76.9,31.3c0,0-4.8-0.2-7.3-1.4
			c-2.8-1.2-5.2-4.5-5.2-4.5s-3.3-3.3-4.1-5.4c-1-3.2,1.2-5.6,2-7.4c1.1-3.1,2-4.8,2.5-7.4c0.4-2.2,0.1-4.6-0.4-6.8
			C54,509.9,51.8,504.6,51.8,504.6L51.8,504.6z"/>
		<path id="path7388_2_" class="st1" d="M169.5,459.9c54.9-8,78.5,0.9,122.5,4.7c44,3.8,65.6-6.4,105.7-20.5s65-24.6,94-42.7
			c28.9-18,63.5-36.8,81.3-55.3c0,0-50.3,25.2-70.5,32.1S427,410,381.3,418.6c-45.6,8.7-79.4,6.8-130.7,0.2S132,434.5,105.1,440.7
			c-27,6.3-65.5,5.8-65.5,5.8s-3.5,6.2-5.7,9c-3.3,4.3-7,10-10.4,15.7c-3.1,5.3-4.9,11.9-4.9,11.9
			C91.9,487.1,114.6,467.9,169.5,459.9z"/>
		<path id="path7386_2_" class="st1" d="M52.1,425.7c0,0,6.1-3,23.4-6.6c54.8-10.6,103.5-30.8,177.5-28.3
			c74.1,2.5,71.6,17.4,146.6,29.8c17.6,2.5,147.6,17.8,147.6,17.8l15.7,4.9c0,0-31.4,0.2-47.2,0.7c-39.7,1.1-79,3.1-127.6,0.2
			c-48.7-2.8-71.1-19.4-137.2-23.2c-66-2.6-97.7,15.6-140.8,22s-70.7,3.3-70.7,3.3c2.5-3.2,4.1-6.9,6.2-10.5l3.2-5.6L52.1,425.7
			L52.1,425.7z"/>
		<path id="path7747_2_" class="st1" d="M53.3,508.4c0,0,25-13.8,53.2-22s62.3-18,100-16.3s45.6,8.9,85.2,7.8
			c37.3-1.4,87.8-21,135.2-25.1c4.9,0.4,54.3-2.1,58.2-1.9c4,0.2,23.2-3.3,23.2-3.3s-46.5-3.6-65.9-3.5
			c-44.3,0.4-89.6,6.3-129.8,9.1S252,443.6,211,443.1s-64.3,0.2-113,23.4c-28.1,11-48.8,15.5-79.7,16.6c0,0,0.9,4.7,1.6,6.4
			c1,2.3,3.2,4.7,4.8,6.1c2.8,2.6,9.4,5.8,12.9,7.4C43.4,505.9,53.3,508.4,53.3,508.4L53.3,508.4z"/>
		<path id="path8576_2_" class="st1" d="M83.6,607c11.5-10.4,24.2-20.5,42.5-35s62.3-27.8,85.8-18.5c23.4,9.3,45.4,9.4,77.1,12.5
			s44.5,3.5,83.7-5.2c39.2-8.5,50.4-22.9,79.2-30.9c28.8-7.9,86.3-19.5,131.9-34.1s80.4-33.4,113.5-45.1l-57.5,16.7
			c-133.6,40.8-136.6,31-190.1,42.8c-53.5,11.7-44.5,15.8-83.3,25.3c-31.6,4.9-70.3,9.1-118.1-6.6s-52.4-13.4-71.1-11.7
			c-18.7,1.6-35.1,7.8-51.8,15.2s-21,13.4-36.7,22.1c-6.1,3.5-8.9,8.3-8.2,21.3c0.2,4.6-1.6,4.9-2.2,9.9c-0.9,4.1,0.1,8.4,0.7,11.4
			C79.9,600.7,83.6,607,83.6,607L83.6,607z"/>
		<path id="path8020_2_" class="st1" d="M69,544.1c0,0,25.6-15.8,39.7-21.9c14.1-6.1,30.9-21.3,84.3-22.5s72,11.6,106.9,19.4
			c35,7.8,60.8,5.7,81.3,11.4c20.6,5.7,21.5,9.6,30.2,13.6c12.6,4.8,35,13.2,35,13.2l-33.6-7.2c0,0-28.8-8.7-43.4-11
			c-17.3-2.8-30.7,2.1-64.3-2c-33.8-4.1-61.6-15-106.4-14.6s-63.2,13.6-81,24c-17.8,10.3-36.2,29.9-37.5,29.8s-4.1-4-6.7-5.3
			c-2.2-1.2-4.9-1.2-7-2.5c-1.9-1-3.5-2.3-4.7-4s-2.2-3.7-2.3-5.8c-0.2-2.6,0.5-5.4,1.9-7.7C63.2,548.1,69,544.1,69,544.1L69,544.1z
			"/>
		<path id="path8934_2_" class="st1" d="M127,622.4c12.1-0.1,38.7-10.6,55.5-18s50.4-11.5,74.5-9.3s46.9,3.8,83.6-1.9
			s76.9-36.1,90.1-40.8c13.1-4.7,48.5-12.2,63.2-14.5l16.8-2.8l-21.9,1.1c-22,3-54.6,8.2-70.1,15.2c-15.6,7-28.3,21.4-57.1,25.1
			c-28.7,3.8-54.3,6.4-81,5.2c-26.8-1.2-76-20.6-141.9-2.3c-12.7,11.1-25.1,22-34.4,36.2l-2,5.7C107.7,622.1,114.9,622.6,127,622.4z
			"/>
		<path id="path8932_2_" class="st1" d="M83.6,606.9c0,0,42.9-39.9,46.7-42.4c20.2-12.1,24.5-16.2,54.1-16.3
			c29.5-0.1,43,14.3,60,15.9c16.9,1.6,33.4,0.4,46-0.5s35.2-4.7,54.1-3.3s19.3,2.7,41.4,6.1l63.2,8.8c0,0-92.7-5.6-110.8-6.2
			c-22.7-0.7-43,5.6-54.3,7.2c-22.5,3.1-22,7.4-62.3-0.5s-60.2,4.5-78,15.5s-17.3,25.6-33.1,31.3c0,0-5.8-0.4-8.5-1.2
			c-4.6-1.5-9-3.8-12.7-6.9C86.9,612,83.6,606.9,83.6,606.9L83.6,606.9z"/>
	</g>
</g>
</svg>
