<?xml version="1.0" encoding="utf-8"?>
<!-- Generator: Adobe Illustrator 25.0.0, SVG Export Plug-In . SVG Version: 6.00 Build 0)  -->
<svg version="1.1" id="Calque_1" xmlns="http://www.w3.org/2000/svg" xmlns:xlink="http://www.w3.org/1999/xlink" x="0px" y="0px"
	 viewBox="0 0 800 800" style="enable-background:new 0 0 800 800;" xml:space="preserve">
<style type="text/css">
	.st0{display:none;}
	.st1{fill:#0F056B;}
	.st2{fill:#FC0FC0;}
	.st3{fill:#FF7518;}
	.st4{fill:#C60800;}
	.st5{fill:#FFD700;}
	.st6{fill:#0131B4;}
	.st7{fill:#FFFFFF;}
</style>
<rect x="26.4" y="127" class="st0" width="794.6" height="449.3"/>
<g id="Calque_1_1_" class="st0">
</g>
<g id="svg5">
	<g>
		<path id="path4773_2_" class="st1" d="M281.3,237.8c45.6,8.4,89,23.4,132.4,37.6c43.4,14.2,71.2,11.9,77.3,11.3
			s42.3-5.1,56.3-10.4c36.8-13.4,76.9-56.4,96.2-64.5c0,0-66.4,18.7-88.9,23.1c-36.2,7.3-64.5,8.5-112.4,3.8
			c-72.2-10.5-72.6-27.2-158-39.7c-86.4-4.3-140.2,12.9-201.4,40.7c0,0-12.2,15.7-21.6,43.5C74.8,296.1,207.5,228.2,281.3,237.8z"/>
		<path id="path4099_3_" class="st2" d="M64.5,273.6c4.5-5.1,44.3-21.9,69.1-29.3c24.7-7.4,57.7-14.6,103-15.2
			c45.4-0.6,96.1,11.3,125.4,24.8c41,16.6,38.8,28.8,89,37s107.2-27.6,167.1-29.3c10.8-1.7,44-7.7,44-7.7s-59.1,21.4-78.6,27
			c-49.1,12.9-88.9,38.7-138.6,35.7c-48.8-13.2-59.9-16.6-103.5-34.9c-33.3-12.9-63.5-21.1-88.5-23c-42.9-1-74.5,3.4-117.3,18.5
			S50,325.3,50,325.3s5.6-26.7,8.4-34.6C62.8,278.5,61.5,280.7,64.5,273.6z"/>
		<path id="path3521_2_" class="st3" d="M197.9,321.2c60.7-4,110.8-3,150.7,2.7s60.7,8.4,106.4,11.4s106.7-1.4,128.8-10.9
			c13.6-5.8,40.4-15.7,59.5-29.8c-41.7,5.2-94.6,22.3-143.2,22c-40.7-0.2-56.1-5.1-94.6-17.8c-38.4-12.7-73.6-30.7-108.5-37.7
			c-35-7-105.6-10.5-167,13.8c-27.4,9.9-77.9,42-77.9,42s-4.2,6.8-3.1,23.5c0.7,11.9,4.9,29.9,4.9,29.9
			C58.4,374.1,150,327.6,197.9,321.2z"/>
		<path id="path2317_2_" class="st1" d="M56.4,382.6c0.6,6.1,0.5,6.1,1.1,8.7c0.6,2.5,1.9,3.6,8.5,8.5c-36.3,0.6,48.7-0.9,105-13.5
			c67.6-14.2,106.2-17.3,150.1-17.3s109.3,17.7,122,18.5c12.7,0.9,67.6,5.2,124.2-1.9c47.3-14.1,100.8-9.8,147.9-16.1
			c-145.6-25.5-115.6,1.7-227.8-17.3c-46.2-12.4-88.1-27.8-127.6-41.8c-61.8-22-112.4-24.2-162.7-19.4
			c-50.3,4.8-102.2,28.4-142.8,78.4C54.2,372.3,55.8,376.5,56.4,382.6L56.4,382.6z"/>
		<path id="path5064_2_" class="st4" d="M104,235.7c36.8-10,73.2-15.6,99.5-18.2c26.3-2.6,59.2-5.2,106.1,2.5s67.9,33.3,114,57.2
			s52.2,32.8,112.3,52.7c60.1,19.9,104.3,26.6,148.6,24.1c44.1-2.5,78.6-22.4,104.6-20.3c-32-5.7-54.9,7.5-100.5,10.9
			c-45.7,3.2-78.3-10.8-93.6-17.1s-43.5-12-93.7-38.4s-49.7-31.8-81.6-56.3s-63.2-36.3-101.5-47.3c-38.4-10.9-75.5-9.5-127-2.6
			c-51.6,6.9-101.6,36-109.3,58.4L104,235.7z"/>
		<path id="path7315_2_" class="st5" d="M51.9,426c0,0,43.9-3.1,61.2-6.6s51.4-16.6,87-23.5s76.4-16.1,111.1-13
			c34.6,3.1,59.5,16.1,69.5,22.1c33.6,15,86.8,14.6,138.5,8.9l25.1-4.5l-11.3-1.5c-55,0.9-93,1.4-137.1-19.4
			c-13.7-5.1-39.4-25.5-88.8-31.6s-73.7-7.8-124-0.2c-50.4,7.5-75.9,20.6-126.1,33.6l0.5,11.5c0.2,5.9-0.7,8.4-2,14.3
			C55,418.3,51.9,426,51.9,426L51.9,426z"/>
		<path id="path7941_2_" class="st5" d="M51.8,504.6c0,0,22-13.8,39.9-20.2c17.9-6.2,38.9-17.9,92.6-18.7
			c53.7-0.7,74.5,19.4,115.3,18.7s69.2-9.4,85.4-18c19-7.5,28.1-6.1,28.1-6.1c-12.4,4.9-22.1,7.7-39.2,19.9
			c-18,7.9-42.2,24.6-71.7,25.5s-52.4-2-76.8-1.7s-53.9,2.8-81.5,10.4c-27.7,7.7-48.6,29.2-76.9,31.3c0,0-4.8-0.2-7.3-1.4
			c-2.8-1.2-5.2-4.5-5.2-4.5s-3.3-3.3-4.1-5.4c-1-3.2,1.2-5.6,2-7.4c1.1-3.1,2-4.8,2.5-7.4c0.4-2.2,0.1-4.6-0.4-6.8
			C54,509.9,51.8,504.6,51.8,504.6L51.8,504.6z"/>
		<path id="path7388_2_" class="st6" d="M169.5,459.9c54.9-8,78.5,0.9,122.5,4.7c44,3.8,65.6-6.4,105.7-20.5s65-24.6,94-42.7
			c28.9-18,63.5-36.8,81.3-55.3c0,0-50.3,25.2-70.5,32.1S427,410,381.3,418.6c-45.6,8.7-79.4,6.8-130.7,0.2S132,434.5,105.1,440.7
			c-27,6.3-65.5,5.8-65.5,5.8s-3.5,6.2-5.7,9c-3.3,4.3-7,10-10.4,15.7c-3.1,5.3-4.9,11.9-4.9,11.9
			C91.9,487.1,114.6,467.9,169.5,459.9z"/>
		<path id="path7386_2_" class="st3" d="M52.1,425.7c0,0,6.1-3,23.4-6.6c54.8-10.6,103.5-30.8,177.5-28.3
			c74.1,2.5,71.6,17.4,146.6,29.8c17.6,2.5,147.6,17.8,147.6,17.8l15.7,4.9c0,0-31.4,0.2-47.2,0.7c-39.7,1.1-79,3.1-127.6,0.2
			c-48.7-2.8-71.1-19.4-137.2-23.2c-66-2.6-97.7,15.6-140.8,22s-70.7,3.3-70.7,3.3c2.5-3.2,4.1-6.9,6.2-10.5l3.2-5.6L52.1,425.7
			L52.1,425.7z"/>
		<path id="path7747_2_" class="st4" d="M53.3,508.4c0,0,25-13.8,53.2-22s62.3-18,100-16.3s45.6,8.9,85.2,7.8
			c37.3-1.4,87.8-21,135.2-25.1c4.9,0.4,54.3-2.1,58.2-1.9c4,0.2,23.2-3.3,23.2-3.3s-46.5-3.6-65.9-3.5
			c-44.3,0.4-89.6,6.3-129.8,9.1S252,443.6,211,443.1s-64.3,0.2-113,23.4c-28.1,11-48.8,15.5-79.7,16.6c0,0,0.9,4.7,1.6,6.4
			c1,2.3,3.2,4.7,4.8,6.1c2.8,2.6,9.4,5.8,12.9,7.4C43.4,505.9,53.3,508.4,53.3,508.4L53.3,508.4z"/>
		<path id="path8576_2_" class="st1" d="M83.6,607c11.5-10.4,24.2-20.5,42.5-35s62.3-27.8,85.8-18.5c23.4,9.3,45.4,9.4,77.1,12.5
			s44.5,3.5,83.7-5.2c39.2-8.5,50.4-22.9,79.2-30.9c28.8-7.9,86.3-19.5,131.9-34.1s80.4-33.4,113.5-45.1l-57.5,16.7
			c-133.6,40.8-136.6,31-190.1,42.8c-53.5,11.7-44.5,15.8-83.3,25.3c-31.6,4.9-70.3,9.1-118.1-6.6s-52.4-13.4-71.1-11.7
			c-18.7,1.6-35.1,7.8-51.8,15.2s-21,13.4-36.7,22.1c-6.1,3.5-8.9,8.3-8.2,21.3c0.2,4.6-1.6,4.9-2.2,9.9c-0.9,4.1,0.1,8.4,0.7,11.4
			C79.9,600.7,83.6,607,83.6,607L83.6,607z"/>
		<path id="path8020_2_" class="st3" d="M69,544.1c0,0,25.6-15.8,39.7-21.9c14.1-6.1,30.9-21.3,84.3-22.5s72,11.6,106.9,19.4
			c35,7.8,60.8,5.7,81.3,11.4c20.6,5.7,21.5,9.6,30.2,13.6c12.6,4.8,35,13.2,35,13.2l-33.6-7.2c0,0-28.8-8.7-43.4-11
			c-17.3-2.8-30.7,2.1-64.3-2c-33.8-4.1-61.6-15-106.4-14.6s-63.2,13.6-81,24c-17.8,10.3-36.2,29.9-37.5,29.8s-4.1-4-6.7-5.3
			c-2.2-1.2-4.9-1.2-7-2.5c-1.9-1-3.5-2.3-4.7-4s-2.2-3.7-2.3-5.8c-0.2-2.6,0.5-5.4,1.9-7.7C63.2,548.1,69,544.1,69,544.1L69,544.1z
			"/>
		<path id="path8934_2_" class="st6" d="M127,622.4c12.1-0.1,38.7-10.6,55.5-18s50.4-11.5,74.5-9.3s46.9,3.8,83.6-1.9
			s76.9-36.1,90.1-40.8c13.1-4.7,48.5-12.2,63.2-14.5l16.8-2.8l-21.9,1.1c-22,3-54.6,8.2-70.1,15.2c-15.6,7-28.3,21.4-57.1,25.1
			c-28.7,3.8-54.3,6.4-81,5.2c-26.8-1.2-76-20.6-141.9-2.3c-12.7,11.1-25.1,22-34.4,36.2l-2,5.7C107.7,622.1,114.9,622.6,127,622.4z
			"/>
		<path id="path8932_2_" class="st2" d="M83.6,606.9c0,0,42.9-39.9,46.7-42.4c20.2-12.1,24.5-16.2,54.1-16.3
			c29.5-0.1,43,14.3,60,15.9c16.9,1.6,33.4,0.4,46-0.5s35.2-4.7,54.1-3.3s19.3,2.7,41.4,6.1l63.2,8.8c0,0-92.7-5.6-110.8-6.2
			c-22.7-0.7-43,5.6-54.3,7.2c-22.5,3.1-22,7.4-62.3-0.5s-60.2,4.5-78,15.5s-17.3,25.6-33.1,31.3c0,0-5.8-0.4-8.5-1.2
			c-4.6-1.5-9-3.8-12.7-6.9C86.9,612,83.6,606.9,83.6,606.9L83.6,606.9z"/>
	</g>
</g>
<g>
	<path class="st7" d="M257.5,177.5c21.3,0,40.8,2.3,60.7,8c38.3,11,69.6,22.8,101.5,47.3c1.2,0.9,2.4,1.8,3.5,2.7
		c5.8,1.1,12.1,2.2,19,3.2c19,1.9,34.8,2.8,49.4,2.8c22.2,0,41.2-2.2,63-6.6c22.5-4.4,88.9-23.1,88.9-23.1
		c-17.9,7.5-53.5,44.8-87.9,61c20.3-5.7,41.2-10.6,62.5-11.2c10.8-1.7,44-7.7,44-7.7s-59.1,21.4-78.6,27
		c-20.6,5.4-39.6,13.1-58.4,20c9.6,4.5,18.2,8.1,25.8,11.1c32.7-5.4,64.9-13.9,92.4-17.4c-18.6,13.7-44.4,23.4-58.3,29.3
		c3.8,1.3,7.1,2.4,10,3.6c13.8,5.7,41.5,17.6,80.2,17.6c4.3,0,8.8-0.1,13.4-0.5c37.7-2.8,59.9-12.3,84.5-12.3c5.2,0,10.5,0.4,16,1.4
		c-1.3-0.1-2.6-0.2-4-0.2c-25.5,0-58.7,18.1-100.6,20.5c-5.8,0.3-11.7,0.5-17.6,0.5c-36.4,0-74.1-6.5-121.9-21.6
		c-18.1,2.2-39.3,3.4-59.8,3.4c-10.4,0-20.7-0.3-30.2-0.9c-11.5-0.8-21.5-1.5-30.5-2.3c20.1,6.7,41,13.3,62.9,19.2
		c25.8,4.4,44.1,6.3,58.7,7c14.7-7,26.9-13.1,26.9-13.1c-4.3,4.5-9.5,8.9-15.5,13.4c0.7,0,1.3,0,1.9,0c17.8,0,30.8-1.7,49.9-1.7
		c21.9,0,51.8,2.2,105.8,11.7c-47.1,6.3-100.6,2-147.9,16.1c-19.4,2.4-38.7,3.5-56,3.9c-6.6,4-13.2,8-19.6,11.9
		c-3.6,2.3-7.2,4.4-10.7,6.4c7.2,0.3,14.7,0.4,22.4,0.4c9.3,0,19.1-0.2,29.5-0.3l11.3,1.5l-25.1,4.5c-18.9,2.1-37.9,3.4-56.1,3.6
		c-6,3-12.2,5.9-18.6,8.7c43.9,5.3,102.7,12.2,102.7,12.2l15.7,4.9c0,0-31.4,0.2-47.2,0.7c-14.1,0.4-28.1,0.9-42.5,1.2
		c17.8,1,35.1,2.4,35.1,2.4s-18.1,3.3-22.8,3.3c-0.1,0-0.3,0-0.4,0c-0.2,0-0.4,0-0.6,0c-6.5,0-46,2-55.8,2c-0.8,0-1.4,0-1.8,0
		c-47.4,4.1-97.9,23.7-135.2,25.1c-2.8,0.1-5.4,0.1-7.9,0.1c-17.2,0-27.9-1.7-39.2-3.6c17.3,4.9,32.7,10,52.9,10c0.7,0,1.4,0,2.1,0
		c40.8-0.7,69.2-9.4,85.4-18c13.8-5.5,22.4-6.2,26.1-6.2c1.4,0,2,0.1,2,0.1c-12.4,4.9-22.1,7.7-39.2,19.9
		c-18,7.9-42.2,24.6-71.7,25.5c-4,0.1-7.9,0.2-11.6,0.2c-16,0-30.2-0.9-44-1.5c18.8,4.2,33.5,10.3,53.4,14.7
		c35,7.8,60.8,5.7,81.3,11.4c0.6,0.2,1.1,0.3,1.7,0.5c21.1-6.6,22.6-11.1,66.8-20.8c53.5-11.8,56.5-2,190.1-42.8l57.5-16.7
		c-33.1,11.7-67.9,30.5-113.5,45.1c-45.6,14.6-103.1,26.2-131.9,34.1c-14.8,4.1-24.9,9.9-36.6,15.7c2.9,1.1,6.1,2.3,9.3,3.5
		c16.9-5.8,44.7-10.2,64.2-12.9l21.9-1.1l-16.8,2.8c-14.2,2.2-47.8,9.3-61.8,14c7.9,3,14.3,5.4,14.3,5.4l-18.1-3.9
		c-6,2.7-15.5,8.6-26.9,15.1l47.7,6.6c0,0-26.5-1.6-53.9-3.2c-16.4,9-36,18.3-54.6,21.2c-18.7,2.9-33.8,3.9-47.3,3.9
		c-13,0-24.5-0.9-36.3-2c-4.4-0.4-9.1-0.6-14-0.6c-21.8,0-46.8,3.8-60.5,9.9c-16.8,7.4-43.4,17.9-55.5,18c-1.8,0-3.5,0-5.1,0
		c-4.1,0-7.5-0.1-10.5-0.3c-0.3,0.1-0.5,0.2-0.8,0.3c0,0-5.8-0.4-8.5-1.2c-4.6-1.5-9-3.8-12.7-6.9c-2.3-2.2-5.4-6.9-5.8-7.4
		c0,0,0,0,0,0c0,0-3.7-6.3-4.6-9.9c-0.6-3-1.6-7.3-0.7-11.4c0.6-4.9,2.3-5.3,2.2-9.5c-0.1,0.1-0.2,0.1-0.3,0.1c0,0,0,0,0,0
		c-1.3-0.1-4.1-4-6.7-5.3c-2.2-1.2-4.9-1.2-7-2.5c-1.9-1-3.5-2.3-4.7-4c-1.2-1.7-2.2-3.7-2.3-5.8c-0.2-2.6,0.5-5.4,1.9-7.7
		c1.1-1.7,3.6-3.9,5.4-5.3c-0.8,0-4.9-0.3-7.1-1.4c-2.8-1.2-5.2-4.5-5.2-4.5s-3.3-3.3-4.1-5.4c-1-3.2,1.2-5.6,2-7.4
		c1.1-3.1,2-4.8,2.5-7.4c0.4-2.2,0.1-4.6-0.4-6.8c-0.2-1.2-0.7-2.9-1.3-4.4c-0.8-0.2-10.1-2.6-15.6-5.4c-3.5-1.6-10.1-4.8-12.9-7.4
		c-1.6-1.4-3.8-3.8-4.8-6.1c-0.7-1.7-1.6-6.4-1.6-6.4c0.1,0,0.2,0,0.3,0c0-0.1,1.8-6.6,4.9-11.9c3.4-5.7,7.1-11.4,10.4-15.7
		c2.2-2.8,5.7-9,5.7-9s0.7,0,2.1,0c0,0,0.1,0,0.1,0c-1.5-0.1-2.4-0.2-2.4-0.2c2.5-3.2,4.1-6.9,6.2-10.5l3.2-5.6l3.1-4.3
		c0.2-0.6,3.1-7.7,3.6-9.8c1.3-5.9,2.2-8.4,2-14.3l-0.1-1.9c-0.2,0-0.2,0,0,0l-0.4-9.6c0.1,0,0.2,0,0.3-0.1
		c-0.3-1.7-0.4-2.5-0.9-7.6c-0.5-5.4-1.8-9.3-2.1-12.1c-0.2,0-0.3-0.1-0.4-0.2c0,0-4.2-18-4.9-29.9c-0.9-13,1.5-20,2.6-22.5
		c1.9-8.5,5-22,6.8-27.2c4.4-12.2,3.1-10,6.1-17.1c0.1-0.1,0.2-0.2,0.4-0.4c7.3-18.3,15.1-29.7,17.3-32.7c8.6-22.3,58-50.8,109-57.6
		C216.1,179.6,237.6,177.5,257.5,177.5 M448,290.4c-5.7-3.2-12-6.7-19.4-10.6c-4.7-1.3-9.7-2.7-14.9-4.4c-8.1-2.6-16.2-5.3-24.3-8
		C405.8,277,415,284.7,448,290.4 M499.5,288.2c8.1-1.7,16.3-3.9,24.6-6.3c-10.7,1.9-21.9,3.5-28.4,4.3
		C497,286.8,498.2,287.5,499.5,288.2 M499.4,316.6c-3.6-1.5-7-2.9-10.1-4.4c-5.5,1.3-11,2.4-16.7,3.2
		C480.4,316.2,489.1,316.5,499.4,316.6 M437.7,402.7c13.1-4.6,25.5-9.3,36.2-13.5c-14.9-0.5-25.9-1.4-30.8-1.7
		c-8.9-0.6-43.6-9.4-78.7-14.7c14.6,6.6,24.6,13.1,31.5,15.7C410.2,395.2,423.9,399.7,437.7,402.7 M225.6,390.9
		c4.9-0.2,9.9-0.3,15-0.3c4.1,0,8.2,0.1,12.4,0.2c68.8,2.3,71.6,15.3,131.7,27.1c6.9-1.4,13.9-3.1,21-5.1c-9.2-1.9-17.6-4.5-25-7.8
		c-10-6-34.9-19-69.5-22.1c-4.8-0.4-9.6-0.6-14.6-0.6C273.8,382.3,249.2,386.4,225.6,390.9 M390.8,446.5c6.5-0.5,13.1-0.9,19.7-1.3
		c-4.7-0.2-9.5-0.3-14.3-0.6C394.4,445.3,392.6,445.9,390.8,446.5 M316.9,539.9c9,0,17.6-0.5,25.7-1.3c-3.2,0.1-6.5,0.2-10.2,0.2
		c-7.5,0-16.3-0.4-27.3-1.7c-23.6-2.9-44.3-9-69.8-12.4c4,1.2,8.3,2.6,13,4.2C273.6,537.2,296.4,539.9,316.9,539.9 M391.4,567.2
		c10.5-5.4,18.4-11.8,27.3-15.8c0,0,0,0,0.1,0l-6-1.3c0,0-1.6-0.5-4.2-1.2c-9.5,4.4-20.5,8.6-35.9,11.9c-3,0.7-5.8,1.3-8.5,1.8
		c5.2,0.9,10.8,2.1,21.7,3.8L391.4,567.2 M262.1,564.9c4,0,7.8-0.1,11.6-0.3c-19-1.6-34.5-2.8-49.9-7.1c7.2,3.1,13.6,5.9,20.6,6.6
		C250.4,564.7,256.4,564.9,262.1,564.9 M293.9,582c22,0,43.8-2.3,67.7-5.5c8-1,14.8-2.9,20.8-5.2c-19.4-1.1-37.2-2.1-44.1-2.3
		c-1.2,0-2.4-0.1-3.5-0.1c-21.3,0-40.1,5.7-50.8,7.3c-8.9,1.2-14.2,2.7-19.9,3.4c6.2,1.1,11.7,1.9,16.5,2.1
		C285.1,581.9,289.5,582,293.9,582 M257.5,172.5c-18.3,0-39,1.7-67,5.4c-49.9,6.7-102.3,34.7-112.8,60.2c-2.7,3.7-10.1,15-17.2,32.4
		c-0.3,0.4-0.5,0.8-0.7,1.2c-1.7,4.1-2.1,5.4-2.9,7.6c-0.6,1.8-1.4,4.3-3.3,9.7c-1.9,5.2-4.7,17.7-6.9,27.4
		c-1.5,3.6-3.7,11.3-2.8,24.3c0.7,12.2,4.8,30,5,30.7c0.1,0.5,0.3,1,0.6,1.4c0.2,0.9,0.4,1.9,0.6,3c0.4,2.1,0.9,4.5,1.2,7.2
		c0.1,1.3,0.2,2.3,0.3,3.2c0.1,1.5,0.2,2.4,0.3,3.2c-0.1,0.3-0.1,0.7-0.1,1l0.4,8.4c-0.1,0.4-0.1,0.8-0.1,1.2c0,0.4,0.1,0.8,0.2,1.2
		l0,0.7c0.1,4.2-0.3,6.2-1.3,10.2c-0.2,0.9-0.4,1.8-0.6,2.8c-0.2,0.9-1.5,4.6-3.1,8.5l-2.7,3.7c-0.1,0.2-0.2,0.3-0.3,0.5l-3.2,5.6
		c-0.7,1.2-1.4,2.4-2,3.6c-1.2,2.3-2.4,4.5-3.8,6.3c-0.5,0.6-0.8,1.4-1,2.1c-1.2,2.1-3.2,5.4-4.5,7.1c0,0,0,0,0,0
		c-4,5.2-8,11.7-10.7,16.2c-2.5,4.2-4.2,9-4.9,11.5c-0.8,1.1-1.1,2.5-0.9,3.9c0.2,1.2,1.1,5.4,1.9,7.4c0,0,0,0.1,0,0.1
		c1.6,3.7,5,6.9,6,7.8c2.5,2.3,7.3,5.1,14.1,8.2c4.3,2.1,10.3,4,13.9,5c0.2,0.6,0.2,0.9,0.3,1.2c0,0.1,0,0.2,0.1,0.3
		c0.5,2,0.6,3.6,0.4,4.8c-0.3,1.3-0.7,2.4-1.3,3.9c-0.3,0.7-0.6,1.5-0.9,2.5c-0.1,0.2-0.3,0.5-0.4,0.7c-1.1,1.9-3.2,5.5-1.7,10.1
		c0,0.1,0.1,0.2,0.1,0.3c1,2.7,3.8,5.7,5,6.9c0.8,1.1,3.2,3.9,6.3,5.5c-1.9,3.2-2.8,6.9-2.5,10.4c0.1,2.8,1.2,5.6,3.2,8.4
		c1.6,2.2,3.7,4.1,6.3,5.5c1.7,1,3.4,1.5,4.9,1.8c0.9,0.2,1.7,0.4,2.2,0.7c0.1,0,0.1,0.1,0.2,0.1c0.6,0.3,1.8,1.5,2.6,2.3
		c0.4,0.4,0.7,0.7,1.1,1.1c0,0.1-0.1,0.2-0.1,0.3c-0.5,1.3-1.2,3-1.5,5.8c-1,4.8,0,9.5,0.6,12.6l0.1,0.6c0,0.1,0,0.2,0.1,0.2
		c1,4.2,4.7,10.5,5.1,11.2c0.2,0.3,0.4,0.6,0.6,0.8c1.2,1.8,3.8,5.5,6.1,7.7c0.1,0.1,0.2,0.2,0.3,0.2c4,3.4,9,6.1,14.4,7.8
		c0,0,0.1,0,0.1,0c3.1,0.9,8.5,1.3,9.6,1.4c0.1,0,0.2,0,0.3,0c0.5,0,1.1-0.1,1.6-0.3c2.9,0.1,6.1,0.2,9.7,0.2c1.6,0,3.4,0,5.2,0
		c14.4-0.1,44.9-12.9,57.4-18.4c12.7-5.6,36.7-9.5,58.5-9.5c4.8,0,9.4,0.2,13.5,0.6c11.7,1.1,23.4,2,36.8,2c15.3,0,30.6-1.3,48.1-4
		c20.2-3.1,40.8-13.3,55-21c26.6,1.5,52.2,3.1,52.5,3.1c0.1,0,0.2,0,0.3,0c2.6,0,4.7-1.9,5-4.5c0.3-2.7-1.6-5.1-4.3-5.4l-33.3-4.6
		c4.9-2.8,9.2-5.3,12.4-6.9l16.5,3.5c0.4,0.1,0.7,0.1,1.1,0.1c2.2,0,4.2-1.4,4.8-3.6c0.7-2.5-0.6-5.2-3-6.1c0,0,0,0,0,0
		c15.4-3.9,35.9-8.1,46.6-9.8l16.8-2.8c2.6-0.4,4.4-2.8,4.1-5.5c-0.3-2.5-2.4-4.5-5-4.5c-0.1,0-0.2,0-0.3,0l-21.9,1.1
		c-0.1,0-0.3,0-0.4,0c-20.5,2.8-37.2,5.7-50,8.8c4.6-2,9.5-3.8,15.1-5.3c9.9-2.7,23.2-5.9,38.5-9.5c28.3-6.7,63.6-15.1,93.6-24.7
		c26.8-8.6,50.3-18.8,71-27.7c14.9-6.5,29-12.6,42.7-17.4c2.6-0.9,3.9-3.7,3.1-6.2c-0.7-2.1-2.6-3.5-4.8-3.5c-0.5,0-0.9,0.1-1.4,0.2
		l-57.5,16.7c0,0,0,0-0.1,0c-91.9,28.1-122.1,32.1-148.8,35.7c-12.4,1.7-24.2,3.3-40.9,7c-30.3,6.6-40.9,10.9-51.2,15
		c-4.5,1.8-8.8,3.5-14.6,5.4c-0.1,0-0.2,0-0.2-0.1c-10.2-2.8-21.3-3.8-34.2-4.9c-13.8-1.2-29.3-2.5-47.4-6.6c-4.6-1-9-2.2-13.2-3.4
		c0.9,0,1.9,0,2.8,0c4,0,7.9-0.1,11.8-0.2c23.7-0.7,44-11.1,60.2-19.4c4.8-2.4,9.3-4.7,13.3-6.5c0.3-0.1,0.6-0.3,0.9-0.5
		c14.2-10.1,22.9-13.5,33-17.3c1.7-0.6,3.4-1.3,5.1-2c2.1-0.8,3.4-3,3.1-5.2c0-0.3-0.1-0.6-0.2-0.9c3-0.4,6.1-0.7,9.1-1
		c0.4,0,1,0,1.7,0c5.5,0,20.1-0.6,33-1.1c10.3-0.4,20-0.8,22.8-0.8c0.2,0,0.3,0,0.4,0c0.2,0,0.4,0,0.6,0c5,0,21.8-3,23.7-3.4
		c1.9-0.3,3.3-1.7,3.9-3.4c0.9,0,1.8-0.1,2.8-0.1c15.6-0.5,46.8-0.7,47.1-0.7c2.5,0,4.5-1.8,4.9-4.3c0.4-2.4-1.1-4.8-3.5-5.5
		l-15.7-4.9c-0.3-0.1-0.6-0.2-0.9-0.2c-0.5-0.1-45-5.3-85.2-10.1c0.5-0.3,1.1-0.5,1.6-0.8c16.8-0.2,35.5-1.4,55.5-3.6
		c0.1,0,0.2,0,0.3,0l25.1-4.5c2.4-0.4,4.2-2.6,4.1-5c-0.1-2.5-1.9-4.5-4.3-4.8l-11.3-1.5c-0.2,0-0.4,0-0.7,0c0,0-0.1,0-0.1,0
		c-9.8,0.2-19.8,0.3-29.4,0.3c-1.8,0-3.5,0-5.2,0c4.7-2.9,9.6-5.9,14.4-8.8c19.5-0.4,38.1-1.7,55.2-3.9c0.3,0,0.5-0.1,0.8-0.2
		c29.3-8.7,61.5-10.3,92.7-11.8c18.1-0.9,36.9-1.8,54.5-4.1c2.4-0.3,4.3-2.4,4.3-4.9c0-2.5-1.7-4.6-4.1-5c-12.5-2.2-23.7-4-33.7-5.5
		c0.8,0,1.6-0.1,2.5-0.1c23-1.3,43.2-7.1,61-12.3c15.1-4.4,28.2-8.1,39.3-8.1c1.2,0,2.4,0,3.6,0.1c0.1,0,0.3,0,0.4,0
		c2.5,0,4.6-1.8,5-4.4c0.3-2.6-1.5-5.1-4.1-5.6c-5.6-1-11.1-1.5-16.9-1.5c-12.9,0-24.8,2.4-38.6,5.3c-13,2.7-27.8,5.7-46.2,7.1
		c-4.3,0.3-8.7,0.5-13,0.5c-36.1,0-62.2-10.5-76.5-16.4c14.3-5.9,33-14.3,47.6-25c1.8-1.4,2.5-3.8,1.7-5.9c-0.8-1.9-2.6-3.1-4.6-3.1
		c-0.2,0-0.4,0-0.6,0c-15.5,1.9-32.3,5.4-50.1,9.1c-13.4,2.8-27.3,5.7-41.1,8c-4.4-1.7-8.8-3.5-13.2-5.5c0,0,0,0,0,0
		c14.9-5.6,30.3-11.3,46.5-15.6c0,0,0.1,0,0.1,0c19.4-5.6,76.5-26.2,78.9-27.1c2.4-0.9,3.8-3.5,3.1-6c-0.6-2.2-2.6-3.7-4.8-3.7
		c-0.3,0-0.6,0-0.9,0.1c-0.3,0.1-32.6,5.9-43.6,7.6c-10.7,0.3-21.3,1.7-31.5,3.7c10-7.1,19.6-14.8,28.6-22
		c12.7-10.1,23.6-18.9,30.8-21.9c2.4-1,3.7-3.8,2.8-6.3c-0.7-2.1-2.6-3.4-4.7-3.4c-0.4,0-0.9,0.1-1.4,0.2
		c-0.7,0.2-66.5,18.7-88.5,23c-22.6,4.6-41.2,6.5-62.1,6.5c-14,0-29.5-0.9-48.7-2.8c-6.1-0.9-12-1.9-17.5-2.9
		c-0.8-0.6-1.7-1.3-2.6-2c-32.1-24.6-63.2-36.7-103.2-48.1C299.9,175.1,280.2,172.5,257.5,172.5L257.5,172.5z M485.2,341.2
		c20.4,0,41.5-1.2,59.3-3.3c7.2,2.3,14.2,4.4,21,6.3c-4.7,2.3-12.1,6-20.5,9.9c-15.9-0.8-34-3-56.6-6.8c-7.5-2-15-4.1-22.8-6.4
		C472,341.1,478.5,341.2,485.2,341.2L485.2,341.2z M571.8,354.2c1.7-1.6,3.3-3.1,4.8-4.7c0.6-0.6,1-1.3,1.2-2.1
		c8.3,2.1,16.3,3.9,24.1,5.4c-6.7,0.1-12.8,0.5-18.7,0.8C579.4,353.9,575.6,354.1,571.8,354.2L571.8,354.2z M437.4,397.5
		c-13.5-3-26.4-7.5-39.3-13.6c-0.1-0.1-0.3-0.1-0.4-0.2c0,0-0.1,0-0.1,0c7,1.4,13.7,2.8,19.8,4c12.3,2.6,21.2,4.4,25.5,4.7l1.3,0.1
		c1.6,0.1,3.6,0.3,5.9,0.4C445.9,394.5,441.7,396,437.4,397.5L437.4,397.5z M282.4,387.8c4.8-0.3,9.5-0.5,14.2-0.5
		c4.9,0,9.7,0.2,14.1,0.6c32.4,2.9,56.1,14.7,67.4,21.4c0.2,0.1,0.4,0.2,0.5,0.3c2.4,1,4.8,2,7.4,3c-0.5,0.1-0.9,0.2-1.4,0.3
		c-22.1-4.4-36.4-9-49.1-13C320.1,394.8,306.1,390.4,282.4,387.8L282.4,387.8z M332.4,476.9c8.1-1.8,16.4-3.8,24.9-5.8
		c3.1-0.8,6.3-1.5,9.4-2.3C358,471.8,346.7,474.8,332.4,476.9L332.4,476.9z M388.9,561.8c1.7-0.5,3.3-1,4.9-1.6
		c-1,0.6-2.1,1.2-3.2,1.8L388.9,561.8L388.9,561.8z M307.4,576.7c8.3-1.5,17.5-2.8,27.3-2.8c1.1,0,2.3,0,3.4,0.1
		c0.6,0,1.4,0,2.2,0.1C328.9,575.4,318.1,576.3,307.4,576.7L307.4,576.7z"/>
</g>
</svg>
